<mxfile host="app.diagrams.net" agent="Mozilla/5.0 (Windows NT 10.0; Win64; x64) AppleWebKit/537.36 (KHTML, like Gecko) Chrome/135.0.0.0 Safari/537.36" version="26.2.12">
  <diagram name="Page-1" id="czhiYsuscptl50a-lwjK">
    <mxGraphModel dx="985" dy="536" grid="1" gridSize="10" guides="1" tooltips="1" connect="1" arrows="1" fold="1" page="1" pageScale="1" pageWidth="850" pageHeight="1100" math="1" shadow="0">
      <root>
        <mxCell id="0" />
        <mxCell id="1" parent="0" />
        <mxCell id="mUVZsphtxZ65WO0RgaFc-2" value="" style="ellipse;whiteSpace=wrap;html=1;aspect=fixed;fillColor=#0050ef;fontColor=#ffffff;strokeColor=none;fontSize=20;" parent="1" vertex="1">
          <mxGeometry x="220" y="180" width="370" height="370" as="geometry" />
        </mxCell>
        <mxCell id="mUVZsphtxZ65WO0RgaFc-3" value="" style="ellipse;whiteSpace=wrap;html=1;aspect=fixed;fillColor=light-dark(#000000,#FFFFFF);fontSize=20;" parent="1" vertex="1">
          <mxGeometry x="240" y="260" width="140" height="140" as="geometry" />
        </mxCell>
        <mxCell id="mUVZsphtxZ65WO0RgaFc-4" value="" style="endArrow=none;html=1;rounded=0;entryX=0;entryY=0.5;entryDx=0;entryDy=0;fillColor=#a20025;strokeColor=#6F0000;strokeWidth=4;fontSize=20;" parent="1" target="mUVZsphtxZ65WO0RgaFc-3" edge="1">
          <mxGeometry width="50" height="50" relative="1" as="geometry">
            <mxPoint x="40" y="480" as="sourcePoint" />
            <mxPoint x="100" y="420" as="targetPoint" />
          </mxGeometry>
        </mxCell>
        <mxCell id="mUVZsphtxZ65WO0RgaFc-5" value="" style="endArrow=none;html=1;rounded=0;entryX=0;entryY=0.5;entryDx=0;entryDy=0;fillColor=#a20025;strokeColor=#6F0000;strokeWidth=4;fontSize=20;" parent="1" target="mUVZsphtxZ65WO0RgaFc-3" edge="1">
          <mxGeometry width="50" height="50" relative="1" as="geometry">
            <mxPoint x="40" y="360" as="sourcePoint" />
            <mxPoint x="190" y="300" as="targetPoint" />
          </mxGeometry>
        </mxCell>
        <mxCell id="mUVZsphtxZ65WO0RgaFc-6" value="" style="endArrow=none;html=1;rounded=0;entryX=0;entryY=0.5;entryDx=0;entryDy=0;fillColor=#a20025;strokeColor=#6F0000;strokeWidth=4;fontSize=20;" parent="1" target="mUVZsphtxZ65WO0RgaFc-3" edge="1">
          <mxGeometry width="50" height="50" relative="1" as="geometry">
            <mxPoint x="40" y="240" as="sourcePoint" />
            <mxPoint x="150" y="290" as="targetPoint" />
          </mxGeometry>
        </mxCell>
        <mxCell id="mUVZsphtxZ65WO0RgaFc-7" value="" style="ellipse;whiteSpace=wrap;html=1;aspect=fixed;fillColor=light-dark(#fad7ac, #ffdfb8);strokeColor=none;fontSize=20;" parent="1" vertex="1">
          <mxGeometry x="355" y="430" width="100" height="100" as="geometry" />
        </mxCell>
        <mxCell id="mUVZsphtxZ65WO0RgaFc-8" value="" style="endArrow=none;html=1;rounded=0;exitX=0.5;exitY=0;exitDx=0;exitDy=0;entryX=0.5;entryY=1;entryDx=0;entryDy=0;strokeWidth=4;fontSize=20;" parent="1" source="mUVZsphtxZ65WO0RgaFc-7" target="mUVZsphtxZ65WO0RgaFc-3" edge="1">
          <mxGeometry width="50" height="50" relative="1" as="geometry">
            <mxPoint x="405" y="420" as="sourcePoint" />
            <mxPoint x="445" y="380" as="targetPoint" />
          </mxGeometry>
        </mxCell>
        <mxCell id="mUVZsphtxZ65WO0RgaFc-9" value="" style="ellipse;whiteSpace=wrap;html=1;aspect=fixed;fillColor=light-dark(#B0E3E6,#FFFFFF);strokeColor=none;fontColor=light-dark(#000000,#FFFFFF);fontSize=20;" parent="1" vertex="1">
          <mxGeometry x="427.5" y="262.5" width="135" height="135" as="geometry" />
        </mxCell>
        <mxCell id="mUVZsphtxZ65WO0RgaFc-10" value="" style="endArrow=none;html=1;rounded=0;entryX=0;entryY=0.5;entryDx=0;entryDy=0;exitX=1;exitY=0.5;exitDx=0;exitDy=0;strokeWidth=4;fontSize=20;" parent="1" source="mUVZsphtxZ65WO0RgaFc-3" target="mUVZsphtxZ65WO0RgaFc-9" edge="1">
          <mxGeometry width="50" height="50" relative="1" as="geometry">
            <mxPoint x="375" y="420" as="sourcePoint" />
            <mxPoint x="425" y="370" as="targetPoint" />
          </mxGeometry>
        </mxCell>
        <mxCell id="mUVZsphtxZ65WO0RgaFc-11" value="" style="endArrow=none;html=1;rounded=0;exitX=1;exitY=0.5;exitDx=0;exitDy=0;fillColor=#a20025;strokeColor=#6F0000;strokeWidth=4;fontSize=20;" parent="1" source="mUVZsphtxZ65WO0RgaFc-9" edge="1">
          <mxGeometry width="50" height="50" relative="1" as="geometry">
            <mxPoint x="560" y="360" as="sourcePoint" />
            <mxPoint x="760" y="280" as="targetPoint" />
          </mxGeometry>
        </mxCell>
        <mxCell id="mUVZsphtxZ65WO0RgaFc-12" value="" style="endArrow=none;html=1;rounded=0;exitX=1;exitY=0.5;exitDx=0;exitDy=0;fillColor=#a20025;strokeColor=#6F0000;strokeWidth=4;fontSize=20;" parent="1" source="mUVZsphtxZ65WO0RgaFc-9" edge="1">
          <mxGeometry width="50" height="50" relative="1" as="geometry">
            <mxPoint x="650" y="440" as="sourcePoint" />
            <mxPoint x="760" y="400" as="targetPoint" />
          </mxGeometry>
        </mxCell>
        <mxCell id="mUVZsphtxZ65WO0RgaFc-14" value="&lt;font&gt;pristranskost&lt;/font&gt;" style="text;html=1;align=center;verticalAlign=middle;whiteSpace=wrap;rounded=0;fontColor=light-dark(#000000,#000000);fontSize=20;" parent="1" vertex="1">
          <mxGeometry x="375" y="480" width="60" height="30" as="geometry" />
        </mxCell>
        <mxCell id="mUVZsphtxZ65WO0RgaFc-16" value="uteÅ¾i" style="text;html=1;align=center;verticalAlign=middle;whiteSpace=wrap;rounded=0;fontColor=light-dark(#000000,#000000);fontSize=20;textShadow=1;" parent="1" vertex="1">
          <mxGeometry x="20" y="310" width="60" height="30" as="geometry" />
        </mxCell>
        <mxCell id="mUVZsphtxZ65WO0RgaFc-17" value="&lt;font&gt;Neaktivirana vrednost nevrona&lt;/font&gt;" style="text;html=1;align=center;verticalAlign=middle;whiteSpace=wrap;rounded=0;fillColor=none;fontColor=light-dark(#000000,#000000);fontSize=20;" parent="1" vertex="1">
          <mxGeometry x="270" y="330" width="60" height="30" as="geometry" />
        </mxCell>
        <mxCell id="mUVZsphtxZ65WO0RgaFc-19" value="&lt;font&gt;Aktivirana vrednost nevrona&lt;/font&gt;" style="text;html=1;align=center;verticalAlign=middle;whiteSpace=wrap;rounded=0;fontColor=light-dark(#000000,#000000);fontSize=20;" parent="1" vertex="1">
          <mxGeometry x="465" y="330" width="60" height="30" as="geometry" />
        </mxCell>
        <mxCell id="LRdg9vjhGDNg1c9xDgU--3" value="$$w_{2,1}$$" style="text;html=1;align=center;verticalAlign=middle;whiteSpace=wrap;rounded=0;fontSize=20;textShadow=1;fontColor=light-dark(#000000,#000000);" vertex="1" parent="1">
          <mxGeometry x="90" y="240" width="60" height="30" as="geometry" />
        </mxCell>
        <mxCell id="LRdg9vjhGDNg1c9xDgU--4" value="$$w_{2,3}$$" style="text;html=1;align=center;verticalAlign=middle;whiteSpace=wrap;rounded=0;fontSize=20;textShadow=1;fontColor=light-dark(#000000,#000000);" vertex="1" parent="1">
          <mxGeometry x="90" y="370" width="60" height="30" as="geometry" />
        </mxCell>
        <mxCell id="LRdg9vjhGDNg1c9xDgU--5" value="$$w_{2,2}$$" style="text;html=1;align=center;verticalAlign=middle;whiteSpace=wrap;rounded=0;fontSize=20;textShadow=1;fontColor=light-dark(#000000,#000000);" vertex="1" parent="1">
          <mxGeometry x="90" y="310" width="60" height="30" as="geometry" />
        </mxCell>
        <mxCell id="LRdg9vjhGDNg1c9xDgU--6" value="&lt;font style=&quot;color: light-dark(rgb(0, 0, 0), rgb(0, 0, 0));&quot;&gt;$$b$$&lt;/font&gt;" style="text;html=1;align=center;verticalAlign=middle;whiteSpace=wrap;rounded=0;fontSize=20;" vertex="1" parent="1">
          <mxGeometry x="375" y="440" width="65" height="30" as="geometry" />
        </mxCell>
        <mxCell id="LRdg9vjhGDNg1c9xDgU--11" value="" style="edgeStyle=orthogonalEdgeStyle;rounded=0;orthogonalLoop=1;jettySize=auto;html=1;" edge="1" parent="1" source="LRdg9vjhGDNg1c9xDgU--8" target="LRdg9vjhGDNg1c9xDgU--10">
          <mxGeometry relative="1" as="geometry">
            <Array as="points">
              <mxPoint x="445" y="305" />
              <mxPoint x="445" y="315" />
            </Array>
          </mxGeometry>
        </mxCell>
        <mxCell id="LRdg9vjhGDNg1c9xDgU--8" value="&lt;font style=&quot;color: light-dark(rgb(0, 0, 0), rgb(0, 0, 0));&quot;&gt;$$a$$&lt;/font&gt;" style="text;html=1;align=center;verticalAlign=middle;whiteSpace=wrap;rounded=0;fontSize=20;" vertex="1" parent="1">
          <mxGeometry x="465" y="270" width="60" height="30" as="geometry" />
        </mxCell>
        <mxCell id="LRdg9vjhGDNg1c9xDgU--9" value="&lt;font style=&quot;color: light-dark(rgb(0, 0, 0), rgb(0, 0, 0));&quot;&gt;$$z$$&lt;/font&gt;" style="text;html=1;align=center;verticalAlign=middle;whiteSpace=wrap;rounded=0;fontSize=20;" vertex="1" parent="1">
          <mxGeometry x="270" y="270" width="60" height="30" as="geometry" />
        </mxCell>
        <mxCell id="LRdg9vjhGDNg1c9xDgU--10" value="&lt;font style=&quot;color: light-dark(rgb(0, 0, 0), rgb(0, 0, 0));&quot;&gt;$$\phi$$&lt;/font&gt;" style="text;html=1;align=center;verticalAlign=middle;whiteSpace=wrap;rounded=0;fontSize=20;" vertex="1" parent="1">
          <mxGeometry x="372.5" y="300" width="60" height="30" as="geometry" />
        </mxCell>
        <mxCell id="LRdg9vjhGDNg1c9xDgU--13" value="$$w_{3,1}$$" style="text;html=1;align=center;verticalAlign=middle;whiteSpace=wrap;rounded=0;fontSize=20;textShadow=1;fontColor=light-dark(#000000,#000000);" vertex="1" parent="1">
          <mxGeometry x="640" y="262.5" width="60" height="30" as="geometry" />
        </mxCell>
        <mxCell id="LRdg9vjhGDNg1c9xDgU--14" value="$$w_{3,2}$$" style="text;html=1;align=center;verticalAlign=middle;whiteSpace=wrap;rounded=0;fontSize=20;textShadow=1;fontColor=light-dark(#000000,#000000);" vertex="1" parent="1">
          <mxGeometry x="640" y="330" width="60" height="30" as="geometry" />
        </mxCell>
      </root>
    </mxGraphModel>
  </diagram>
</mxfile>
